<mxfile host="app.diagrams.net" modified="2024-04-07T07:56:02.038Z" agent="Mozilla/5.0 (Macintosh; Intel Mac OS X 10_15_7) AppleWebKit/605.1.15 (KHTML, like Gecko) Version/16.5 Safari/605.1.15" etag="Tc_0G6DJk9V5SmDGXb16" version="24.2.2" type="device">
  <diagram name="Страница — 1" id="hLtDFz5IJKwaZcL991ms">
    <mxGraphModel dx="1698" dy="1117" grid="0" gridSize="10" guides="1" tooltips="1" connect="1" arrows="1" fold="1" page="0" pageScale="1" pageWidth="827" pageHeight="1169" math="0" shadow="0">
      <root>
        <mxCell id="0" />
        <mxCell id="1" parent="0" />
        <mxCell id="UaOORj9ZWwRazpnP1uvp-1" value="Гость" style="shape=umlActor;verticalLabelPosition=bottom;verticalAlign=top;html=1;outlineConnect=0;" vertex="1" parent="1">
          <mxGeometry x="-540" y="-58" width="70" height="155" as="geometry" />
        </mxCell>
        <mxCell id="UaOORj9ZWwRazpnP1uvp-5" value="Авторизованный&lt;div&gt;пользователь&lt;/div&gt;" style="shape=umlActor;verticalLabelPosition=bottom;verticalAlign=top;html=1;outlineConnect=0;" vertex="1" parent="1">
          <mxGeometry x="-159" y="-58" width="70" height="155" as="geometry" />
        </mxCell>
        <mxCell id="UaOORj9ZWwRazpnP1uvp-6" value="Админ&amp;nbsp;&lt;div&gt;проекта&lt;/div&gt;" style="shape=umlActor;verticalLabelPosition=bottom;verticalAlign=top;html=1;outlineConnect=0;" vertex="1" parent="1">
          <mxGeometry x="-540" y="647" width="70" height="155" as="geometry" />
        </mxCell>
        <mxCell id="UaOORj9ZWwRazpnP1uvp-11" value="Участник&lt;div&gt;проекта&lt;/div&gt;" style="shape=umlActor;verticalLabelPosition=bottom;verticalAlign=top;html=1;outlineConnect=0;" vertex="1" parent="1">
          <mxGeometry x="-540" y="262" width="70" height="155" as="geometry" />
        </mxCell>
        <mxCell id="UaOORj9ZWwRazpnP1uvp-25" value="" style="endArrow=block;endSize=16;endFill=0;html=1;rounded=0;fontSize=12;curved=1;exitX=0.5;exitY=0;exitDx=0;exitDy=0;exitPerimeter=0;" edge="1" parent="1" source="UaOORj9ZWwRazpnP1uvp-6">
          <mxGeometry width="160" relative="1" as="geometry">
            <mxPoint x="-500" y="916" as="sourcePoint" />
            <mxPoint x="-505" y="456" as="targetPoint" />
          </mxGeometry>
        </mxCell>
        <mxCell id="UaOORj9ZWwRazpnP1uvp-26" value="Изменить список участников проекта" style="ellipse;whiteSpace=wrap;html=1;" vertex="1" parent="1">
          <mxGeometry x="-390" y="809" width="140" height="70" as="geometry" />
        </mxCell>
        <mxCell id="UaOORj9ZWwRazpnP1uvp-27" value="Выбрать существующий проект" style="ellipse;whiteSpace=wrap;html=1;" vertex="1" parent="1">
          <mxGeometry x="-10" y="60" width="140" height="70" as="geometry" />
        </mxCell>
        <mxCell id="UaOORj9ZWwRazpnP1uvp-28" value="Принять приглашение в проект" style="ellipse;whiteSpace=wrap;html=1;" vertex="1" parent="1">
          <mxGeometry x="-10" y="-33" width="140" height="70" as="geometry" />
        </mxCell>
        <mxCell id="UaOORj9ZWwRazpnP1uvp-29" value="Создать проект" style="ellipse;whiteSpace=wrap;html=1;" vertex="1" parent="1">
          <mxGeometry x="-10" y="-122" width="140" height="70" as="geometry" />
        </mxCell>
        <mxCell id="UaOORj9ZWwRazpnP1uvp-30" value="Авторизоваться" style="ellipse;whiteSpace=wrap;html=1;" vertex="1" parent="1">
          <mxGeometry x="-415" width="140" height="70" as="geometry" />
        </mxCell>
        <mxCell id="UaOORj9ZWwRazpnP1uvp-31" value="Изменить список категорий проекта" style="ellipse;whiteSpace=wrap;html=1;" vertex="1" parent="1">
          <mxGeometry x="-390" y="625" width="140" height="70" as="geometry" />
        </mxCell>
        <mxCell id="UaOORj9ZWwRazpnP1uvp-32" value="Зарегистрироваться" style="ellipse;whiteSpace=wrap;html=1;" vertex="1" parent="1">
          <mxGeometry x="-415" y="-87" width="140" height="70" as="geometry" />
        </mxCell>
        <mxCell id="UaOORj9ZWwRazpnP1uvp-33" value="Перейти к выбору проектов" style="ellipse;whiteSpace=wrap;html=1;" vertex="1" parent="1">
          <mxGeometry x="-390" y="451" width="140" height="70" as="geometry" />
        </mxCell>
        <mxCell id="UaOORj9ZWwRazpnP1uvp-34" value="Удалить проект" style="ellipse;whiteSpace=wrap;html=1;" vertex="1" parent="1">
          <mxGeometry x="-390" y="358" width="140" height="70" as="geometry" />
        </mxCell>
        <mxCell id="UaOORj9ZWwRazpnP1uvp-35" value="Посмотреть информацию о расходах и доходах" style="ellipse;whiteSpace=wrap;html=1;" vertex="1" parent="1">
          <mxGeometry x="-390" y="268" width="140" height="70" as="geometry" />
        </mxCell>
        <mxCell id="UaOORj9ZWwRazpnP1uvp-36" value="Добавить запись об операции" style="ellipse;whiteSpace=wrap;html=1;" vertex="1" parent="1">
          <mxGeometry x="-390" y="173" width="140" height="70" as="geometry" />
        </mxCell>
        <mxCell id="UaOORj9ZWwRazpnP1uvp-37" value="" style="endArrow=none;html=1;rounded=0;fontSize=12;startSize=8;endSize=8;curved=1;entryX=0;entryY=0.5;entryDx=0;entryDy=0;" edge="1" parent="1" source="UaOORj9ZWwRazpnP1uvp-1" target="UaOORj9ZWwRazpnP1uvp-32">
          <mxGeometry width="50" height="50" relative="1" as="geometry">
            <mxPoint x="-173" y="122" as="sourcePoint" />
            <mxPoint x="-123" y="72" as="targetPoint" />
          </mxGeometry>
        </mxCell>
        <mxCell id="UaOORj9ZWwRazpnP1uvp-39" value="" style="endArrow=none;html=1;rounded=0;fontSize=12;startSize=8;endSize=8;curved=1;entryX=0;entryY=0.5;entryDx=0;entryDy=0;" edge="1" parent="1" source="UaOORj9ZWwRazpnP1uvp-1" target="UaOORj9ZWwRazpnP1uvp-30">
          <mxGeometry width="50" height="50" relative="1" as="geometry">
            <mxPoint x="-173" y="122" as="sourcePoint" />
            <mxPoint x="-299" y="35" as="targetPoint" />
          </mxGeometry>
        </mxCell>
        <mxCell id="UaOORj9ZWwRazpnP1uvp-40" value="" style="endArrow=none;html=1;rounded=0;fontSize=12;startSize=8;endSize=8;curved=1;exitX=0;exitY=0.5;exitDx=0;exitDy=0;" edge="1" parent="1" source="UaOORj9ZWwRazpnP1uvp-29" target="UaOORj9ZWwRazpnP1uvp-5">
          <mxGeometry width="50" height="50" relative="1" as="geometry">
            <mxPoint x="-163" y="132" as="sourcePoint" />
            <mxPoint x="-113" y="82" as="targetPoint" />
          </mxGeometry>
        </mxCell>
        <mxCell id="UaOORj9ZWwRazpnP1uvp-41" value="" style="endArrow=none;html=1;rounded=0;fontSize=12;startSize=8;endSize=8;curved=1;exitX=0;exitY=0.5;exitDx=0;exitDy=0;" edge="1" parent="1" source="UaOORj9ZWwRazpnP1uvp-28" target="UaOORj9ZWwRazpnP1uvp-5">
          <mxGeometry width="50" height="50" relative="1" as="geometry">
            <mxPoint x="-153" y="142" as="sourcePoint" />
            <mxPoint x="-103" y="92" as="targetPoint" />
          </mxGeometry>
        </mxCell>
        <mxCell id="UaOORj9ZWwRazpnP1uvp-42" value="" style="endArrow=none;html=1;rounded=0;fontSize=12;startSize=8;endSize=8;curved=1;entryX=0;entryY=0.5;entryDx=0;entryDy=0;" edge="1" parent="1" source="UaOORj9ZWwRazpnP1uvp-5" target="UaOORj9ZWwRazpnP1uvp-27">
          <mxGeometry width="50" height="50" relative="1" as="geometry">
            <mxPoint x="-143" y="152" as="sourcePoint" />
            <mxPoint x="-93" y="102" as="targetPoint" />
          </mxGeometry>
        </mxCell>
        <mxCell id="UaOORj9ZWwRazpnP1uvp-43" value="" style="endArrow=none;html=1;rounded=0;fontSize=12;startSize=8;endSize=8;curved=1;exitX=0;exitY=0.5;exitDx=0;exitDy=0;" edge="1" parent="1" source="UaOORj9ZWwRazpnP1uvp-36" target="UaOORj9ZWwRazpnP1uvp-11">
          <mxGeometry width="50" height="50" relative="1" as="geometry">
            <mxPoint x="-133" y="162" as="sourcePoint" />
            <mxPoint x="-83" y="112" as="targetPoint" />
          </mxGeometry>
        </mxCell>
        <mxCell id="UaOORj9ZWwRazpnP1uvp-44" value="" style="endArrow=none;html=1;rounded=0;fontSize=12;startSize=8;endSize=8;curved=1;exitX=0;exitY=0.5;exitDx=0;exitDy=0;" edge="1" parent="1" source="UaOORj9ZWwRazpnP1uvp-35" target="UaOORj9ZWwRazpnP1uvp-11">
          <mxGeometry width="50" height="50" relative="1" as="geometry">
            <mxPoint x="-123" y="172" as="sourcePoint" />
            <mxPoint x="-73" y="122" as="targetPoint" />
          </mxGeometry>
        </mxCell>
        <mxCell id="UaOORj9ZWwRazpnP1uvp-45" value="" style="endArrow=none;html=1;rounded=0;fontSize=12;startSize=8;endSize=8;curved=1;entryX=0;entryY=0.5;entryDx=0;entryDy=0;" edge="1" parent="1" source="UaOORj9ZWwRazpnP1uvp-11" target="UaOORj9ZWwRazpnP1uvp-34">
          <mxGeometry width="50" height="50" relative="1" as="geometry">
            <mxPoint x="-113" y="182" as="sourcePoint" />
            <mxPoint x="-63" y="132" as="targetPoint" />
          </mxGeometry>
        </mxCell>
        <mxCell id="UaOORj9ZWwRazpnP1uvp-46" value="" style="endArrow=none;html=1;rounded=0;fontSize=12;startSize=8;endSize=8;curved=1;exitX=0;exitY=0.5;exitDx=0;exitDy=0;" edge="1" parent="1" source="UaOORj9ZWwRazpnP1uvp-33" target="UaOORj9ZWwRazpnP1uvp-11">
          <mxGeometry width="50" height="50" relative="1" as="geometry">
            <mxPoint x="-103" y="192" as="sourcePoint" />
            <mxPoint x="-53" y="142" as="targetPoint" />
          </mxGeometry>
        </mxCell>
        <mxCell id="UaOORj9ZWwRazpnP1uvp-47" value="" style="endArrow=none;html=1;rounded=0;fontSize=12;startSize=8;endSize=8;curved=1;exitX=0;exitY=0.5;exitDx=0;exitDy=0;" edge="1" parent="1" source="UaOORj9ZWwRazpnP1uvp-31" target="UaOORj9ZWwRazpnP1uvp-6">
          <mxGeometry width="50" height="50" relative="1" as="geometry">
            <mxPoint x="-171" y="1018" as="sourcePoint" />
            <mxPoint x="-121" y="968" as="targetPoint" />
          </mxGeometry>
        </mxCell>
        <mxCell id="UaOORj9ZWwRazpnP1uvp-48" value="" style="endArrow=none;html=1;rounded=0;fontSize=12;startSize=8;endSize=8;curved=1;exitX=0;exitY=0.5;exitDx=0;exitDy=0;" edge="1" parent="1" source="UaOORj9ZWwRazpnP1uvp-26" target="UaOORj9ZWwRazpnP1uvp-6">
          <mxGeometry width="50" height="50" relative="1" as="geometry">
            <mxPoint x="-171" y="1018" as="sourcePoint" />
            <mxPoint x="-121" y="968" as="targetPoint" />
          </mxGeometry>
        </mxCell>
        <mxCell id="UaOORj9ZWwRazpnP1uvp-49" value="Добавить нового участника" style="ellipse;whiteSpace=wrap;html=1;" vertex="1" parent="1">
          <mxGeometry x="-209" y="759" width="140" height="70" as="geometry" />
        </mxCell>
        <mxCell id="UaOORj9ZWwRazpnP1uvp-50" value="Удалить участника" style="ellipse;whiteSpace=wrap;html=1;" vertex="1" parent="1">
          <mxGeometry x="-209" y="856" width="140" height="70" as="geometry" />
        </mxCell>
        <mxCell id="UaOORj9ZWwRazpnP1uvp-51" value="Удалить категорию" style="ellipse;whiteSpace=wrap;html=1;" vertex="1" parent="1">
          <mxGeometry x="-209" y="659" width="140" height="70" as="geometry" />
        </mxCell>
        <mxCell id="UaOORj9ZWwRazpnP1uvp-52" value="Добавить новую категорию" style="ellipse;whiteSpace=wrap;html=1;" vertex="1" parent="1">
          <mxGeometry x="-209" y="551" width="140" height="70" as="geometry" />
        </mxCell>
        <mxCell id="UaOORj9ZWwRazpnP1uvp-53" value="" style="endArrow=block;endSize=16;endFill=0;html=1;rounded=0;fontSize=12;curved=1;exitX=0;exitY=0.5;exitDx=0;exitDy=0;entryX=1;entryY=1;entryDx=0;entryDy=0;" edge="1" parent="1" source="UaOORj9ZWwRazpnP1uvp-50" target="UaOORj9ZWwRazpnP1uvp-26">
          <mxGeometry width="160" relative="1" as="geometry">
            <mxPoint x="-484" y="1020" as="sourcePoint" />
            <mxPoint x="-486" y="785" as="targetPoint" />
          </mxGeometry>
        </mxCell>
        <mxCell id="UaOORj9ZWwRazpnP1uvp-54" value="" style="endArrow=block;endSize=16;endFill=0;html=1;rounded=0;fontSize=12;curved=1;exitX=0;exitY=0.5;exitDx=0;exitDy=0;entryX=1;entryY=0;entryDx=0;entryDy=0;" edge="1" parent="1" source="UaOORj9ZWwRazpnP1uvp-49" target="UaOORj9ZWwRazpnP1uvp-26">
          <mxGeometry width="160" relative="1" as="geometry">
            <mxPoint x="-474" y="1030" as="sourcePoint" />
            <mxPoint x="-476" y="795" as="targetPoint" />
          </mxGeometry>
        </mxCell>
        <mxCell id="UaOORj9ZWwRazpnP1uvp-55" value="" style="endArrow=block;endSize=16;endFill=0;html=1;rounded=0;fontSize=12;curved=1;exitX=0;exitY=0.5;exitDx=0;exitDy=0;entryX=1;entryY=1;entryDx=0;entryDy=0;" edge="1" parent="1" source="UaOORj9ZWwRazpnP1uvp-51" target="UaOORj9ZWwRazpnP1uvp-31">
          <mxGeometry width="160" relative="1" as="geometry">
            <mxPoint x="-464" y="1040" as="sourcePoint" />
            <mxPoint x="-466" y="805" as="targetPoint" />
          </mxGeometry>
        </mxCell>
        <mxCell id="UaOORj9ZWwRazpnP1uvp-56" value="" style="endArrow=block;endSize=16;endFill=0;html=1;rounded=0;fontSize=12;curved=1;exitX=0;exitY=0.5;exitDx=0;exitDy=0;" edge="1" parent="1" source="UaOORj9ZWwRazpnP1uvp-52" target="UaOORj9ZWwRazpnP1uvp-31">
          <mxGeometry width="160" relative="1" as="geometry">
            <mxPoint x="-454" y="1050" as="sourcePoint" />
            <mxPoint x="-456" y="815" as="targetPoint" />
          </mxGeometry>
        </mxCell>
      </root>
    </mxGraphModel>
  </diagram>
</mxfile>
